<svg width="256px" height="256px" viewBox="-2.4 -2.4 28.80 28.80" xmlns="http://www.w3.org/2000/svg" fill="none"><g id="SVGRepo_bgCarrier" stroke-width="0"></g><g id="SVGRepo_tracerCarrier" stroke-linecap="round" stroke-linejoin="round" stroke="#CCCCCC" stroke-width="1.8719999999999999"></g><g id="SVGRepo_iconCarrier"> <path stroke="#ffffff" stroke-linecap="round" stroke-linejoin="round" stroke-width="1.056" d="M10 7.5a2.5 2.5 0 1 1-5 0 2.5 2.5 0 0 1 5 0Zm0 0 .211-.106a4 4 0 0 1 3.578 0L14 7.5m0 0a2.5 2.5 0 1 0 5 0 2.5 2.5 0 0 0-5 0Zm-2 6.303c5-3 5 3.5 9 1.767-1 4.233-6 4.233-9 1.233-3 3-8 3-9-1.233 4 1.733 4-4.767 9-1.767Z"></path> </g></svg>