<?xml version="1.0" encoding="UTF-8"?>
<svg version="1.1" xmlns="http://www.w3.org/2000/svg" width="512" height="512">
<path d="M0 0 C37.94285899 -0.8554756 70.02771965 19.19266397 97.02734375 44.078125 C99.08355376 45.96148373 101.18859476 47.76192006 103.3203125 49.55859375 C131.7090303 74.48388798 147.72261174 111.58370265 150.8828125 148.68359375 C152.80293411 180.17358814 150.93120232 213.83297211 129.43359375 238.7890625 C127.09768214 241.29272359 124.69594221 243.71712347 122.2578125 246.12109375 C123.2271875 246.46140625 124.1965625 246.80171875 125.1953125 247.15234375 C164.59720054 261.26911996 183.16028273 284.62779428 202.2578125 321.12109375 C202.82564453 322.19939453 203.39347656 323.27769531 203.97851562 324.38867188 C217.05718509 349.33757235 225.84972455 374.86625458 217.6484375 403.125 C210.53835725 424.73646034 195.87829081 442.69341525 175.56640625 453.0703125 C153.87779958 463.47408333 129.02601253 466.28863264 105.2578125 467.12109375 C104.98195313 467.89195312 104.70609375 468.6628125 104.421875 469.45703125 C102.31933189 474.26889165 98.56585653 476.45801405 94.05383301 478.74526978 C87.38023867 481.12699595 80.13892794 480.53853888 73.14648438 480.50927734 C71.51298167 480.51334692 69.87948172 480.51869096 68.24598694 480.52520752 C63.82657384 480.53884105 59.40737171 480.5335989 54.98795509 480.52407026 C50.35390293 480.51645308 45.71986833 480.52352498 41.08581543 480.52822876 C33.30506155 480.53368032 25.52439322 480.52651044 17.74365234 480.51220703 C8.759498 480.49588167 -0.22445208 480.5011706 -9.20860147 480.51768625 C-16.93453162 480.5313182 -24.66040042 480.53321242 -32.38633871 480.52537024 C-36.99530986 480.52070312 -41.60418511 480.52004238 -46.21315002 480.52997971 C-50.54707421 480.538672 -54.88073607 480.5325863 -59.21463203 480.51529694 C-60.80125557 480.51134415 -62.38790134 480.51244537 -63.97451591 480.51908493 C-82.63200187 480.58993871 -82.63200187 480.58993871 -90.1796875 473.55859375 C-90.83839844 472.95917969 -91.49710937 472.35976563 -92.17578125 471.7421875 C-93.7421875 470.12109375 -93.7421875 470.12109375 -94.7421875 468.12109375 C-97.34174758 467.63639244 -97.34174758 467.63639244 -100.5234375 467.4453125 C-101.74603271 467.34234863 -102.96862793 467.23938477 -104.22827148 467.13330078 C-104.8825412 467.08095276 -105.53681091 467.02860474 -106.21090698 466.97467041 C-139.44369655 464.2575712 -172.72848885 458.3118765 -195.58203125 431.87109375 C-211.57762479 411.50780649 -215.8215478 389.18930212 -213.53417969 363.81347656 C-211.68493931 350.0618527 -203.93725959 337.29527253 -197.7421875 325.12109375 C-196.84904541 323.34559098 -195.95590375 321.570088 -195.06282043 319.79455566 C-180.03613824 289.98555235 -164.82155258 268.04875219 -133.9921875 253.30859375 C-132.82260498 252.74893921 -132.82260498 252.74893921 -131.62939453 252.17797852 C-126.44349594 249.76048783 -121.20669577 247.81353281 -115.7421875 246.12109375 C-116.84626953 245.03248047 -116.84626953 245.03248047 -117.97265625 243.921875 C-138.83894175 222.82014481 -144.81912875 195.77671218 -144.9921875 166.87109375 C-144.74982359 126.12029586 -133.32496585 88.65957803 -105.04296875 58.57421875 C-103.03411361 56.43234943 -101.13088657 54.24307063 -99.2421875 51.99609375 C-76.59269477 26.23683085 -40.06886539 2.6239663 -5.109375 0.2109375 C-3.4060256 0.14628893 -1.7029162 0.0752 0 0 Z M-92.7421875 70.12109375 C-110.9297578 91.28980425 -123.70770221 116.17560133 -126.7421875 144.12109375 C-126.85304688 145.14203125 -126.96390625 146.16296875 -127.078125 147.21484375 C-129.4298414 172.8930444 -128.52729382 202.4973395 -112.60546875 224.0078125 C-104.63748483 233.3107466 -96.32789828 238.15274245 -84.40234375 240.6015625 C-79.11296565 241.72065335 -79.11296565 241.72065335 -77.1796875 243.80859375 C-76.52884022 247.2487865 -76.82163569 249.74573711 -77.7421875 253.12109375 C-82.20513811 256.82948363 -87.83415103 257.31947598 -93.3671875 258.37109375 C-113.92144063 262.57393226 -133.13135434 270.08969939 -149.7421875 283.12109375 C-150.7734375 283.86359375 -151.8046875 284.60609375 -152.8671875 285.37109375 C-161.13273299 293.2772677 -166.76281489 303.18448891 -171.9921875 313.24609375 C-172.630671 314.45901089 -173.26967922 315.67165194 -173.90917969 316.8840332 C-175.87286849 320.61980674 -177.8104211 324.36873558 -179.7421875 328.12109375 C-180.05704102 328.73124329 -180.37189453 329.34139282 -180.69628906 329.97003174 C-182.81262897 334.07399673 -184.90840064 338.18797358 -186.9921875 342.30859375 C-187.52875977 343.36385254 -188.06533203 344.41911133 -188.61816406 345.50634766 C-196.60900069 361.50605311 -199.81785226 378.93753191 -195.1796875 396.55859375 C-191.27739768 408.16995261 -185.427149 417.52755289 -176.7421875 426.12109375 C-175.85660156 427.05695313 -175.85660156 427.05695313 -174.953125 428.01171875 C-156.14802793 446.40260664 -123.65358688 449.20662466 -98.7421875 450.12109375 C-99.36113564 439.58748242 -100.93029612 429.19517271 -102.44066048 418.76065445 C-102.91119671 415.50515529 -103.37623637 412.24891337 -103.83970642 408.99240112 C-105.15681991 399.74130797 -106.47973716 390.49107072 -107.81567383 381.24267578 C-108.63569981 375.5630645 -109.44610082 369.8821471 -110.25057793 364.20031357 C-110.5567613 362.05106374 -110.86649316 359.90231604 -111.18000984 357.75412369 C-115.86175493 325.65370614 -115.86175493 325.65370614 -111.15234375 317.8046875 C-107.78695632 313.78673187 -103.70622366 310.77577247 -98.7421875 309.12109375 C-97.40971254 309.02220336 -96.07297629 308.97510097 -94.7368927 308.96287537 C-93.51906853 308.94819214 -93.51906853 308.94819214 -92.27664185 308.93321228 C-91.38975677 308.92745682 -90.5028717 308.92170135 -89.58911133 308.91577148 C-88.65233047 308.90587189 -87.71554962 308.89597229 -86.75038147 308.88577271 C-83.65001972 308.85415286 -80.54964264 308.82939829 -77.44921875 308.8046875 C-75.30115864 308.7841184 -73.15310258 308.76312194 -71.00505066 308.74171448 C-65.34814737 308.68648932 -59.69120753 308.63708195 -54.03424072 308.58886719 C-47.24854783 308.52982908 -40.46292183 308.46359863 -33.67728424 308.3985672 C-23.36562614 308.30055209 -13.05392536 308.21169978 -2.7421875 308.12109375 C-2.7421875 290.63109375 -2.7421875 273.14109375 -2.7421875 255.12109375 C-5.3623178 253.8110286 -7.98570447 253.61831497 -10.86108398 253.22119141 C-20.90215122 251.81847437 -30.20744432 249.53882193 -39.7421875 246.12109375 C-40.76441406 245.76402344 -41.78664062 245.40695312 -42.83984375 245.0390625 C-64.51906848 236.78169965 -85.04786464 220.53949369 -95.1796875 199.43359375 C-98.53822259 191.55906233 -101.22884556 183.72346026 -101.7421875 175.12109375 C-101.79503906 174.27417969 -101.84789062 173.42726562 -101.90234375 172.5546875 C-102.86080388 141.92563559 -87.15467549 114.63079895 -67.0546875 92.68359375 C-65.29142174 90.82222904 -63.5211095 88.96750141 -61.7421875 87.12109375 C-61.00613281 86.321875 -60.27007812 85.52265625 -59.51171875 84.69921875 C-43.18872199 67.45452272 -21.19851237 58.37512133 2.31640625 56.93359375 C30.65630113 56.33141803 52.9375056 68.70565778 72.84716797 87.74658203 C89.01773174 103.50294653 101.29658911 122.67284749 108.2578125 144.12109375 C108.77021484 145.63509766 108.77021484 145.63509766 109.29296875 147.1796875 C114.80921347 166.49937248 112.09680232 187.17738975 102.67163086 204.64306641 C98.79251027 211.35398896 93.78446169 216.73778705 88.2578125 222.12109375 C87.52820313 222.848125 86.79859375 223.57515625 86.046875 224.32421875 C67.92627587 241.43437555 44.05146491 249.99269418 19.828125 253.54296875 C16.4290894 253.91108238 16.4290894 253.91108238 14.2578125 255.12109375 C14.2578125 272.61109375 14.2578125 290.10109375 14.2578125 308.12109375 C21.0228125 308.146875 27.7878125 308.17265625 34.7578125 308.19921875 C39.05081884 308.22439365 43.34375519 308.25073156 47.63671875 308.28125 C54.44645428 308.32954953 61.25602773 308.37360766 68.06591797 308.39208984 C73.55798466 308.40726531 79.04962656 308.44172732 84.54150391 308.48940277 C86.63375144 308.50420727 88.72605963 308.51213423 90.81835938 308.5129776 C93.75566572 308.51535175 96.69180238 308.54246819 99.62890625 308.57519531 C100.4884642 308.57016495 101.34802216 308.56513458 102.23362732 308.55995178 C109.53718048 308.68534694 114.77050516 310.74433341 120.0703125 315.80859375 C129.58224013 330.21236987 123.1570827 349.73570236 120.87890625 365.7265625 C120.54363725 368.10210194 120.2087693 370.47769802 119.87428284 372.85334778 C118.99825258 379.06882631 118.11760728 385.28364145 117.23571777 391.49829102 C115.81962933 401.48288211 114.41046551 411.46845238 113.00160408 421.45406532 C112.50893681 424.9409583 112.01419743 428.42755255 111.51914978 431.91410828 C111.21902031 434.03542454 110.9189335 436.15674683 110.61889648 438.27807617 C110.48020645 439.25099106 110.34151642 440.22390594 110.19862366 441.2263031 C110.07385651 442.11057983 109.94908936 442.99485657 109.82054138 443.90592957 C109.65656687 445.06141942 109.65656687 445.06141942 109.48927975 446.24025249 C109.21709772 448.13609277 109.21709772 448.13609277 109.2578125 450.12109375 C128.37798318 448.70400145 148.80014423 446.56992344 166.2578125 438.12109375 C167.25425781 437.64285156 168.25070312 437.16460937 169.27734375 436.671875 C185.84190472 427.88989338 196.08150487 413.4758821 201.56640625 395.7421875 C202.99672367 390.31991074 203.46966865 385.22823968 203.5078125 379.62109375 C203.53875 378.53054688 203.53875 378.53054688 203.5703125 377.41796875 C203.64982611 365.88849556 200.07338484 355.67508672 194.9453125 345.49609375 C194.16667847 343.91513916 194.16667847 343.91513916 193.37231445 342.30224609 C191.68611563 338.898831 189.97544191 335.50874644 188.2578125 332.12109375 C187.65225386 330.92126932 187.0467861 329.72139903 186.44140625 328.52148438 C184.62260883 324.92282597 182.78660556 321.33329926 180.9453125 317.74609375 C180.38352295 316.6482959 179.8217334 315.55049805 179.24291992 314.41943359 C165.62255729 288.20378927 147.19326879 272.38021085 118.76464844 263.32714844 C108.90067702 260.3092038 99.0599109 257.64230428 88.875 255.95703125 C85.71614291 254.94808287 84.78984228 254.03299967 83.2578125 251.12109375 C82.80369384 248.23577886 83.14127046 245.8203629 84.2578125 243.12109375 C87.96634517 240.80326083 91.26424308 240.10998726 95.5078125 239.30859375 C106.35761441 237.03512589 114.79537885 230.36291118 121.12890625 221.50390625 C137.48570455 195.54408443 137.06966272 159.38936616 130.99243164 130.28417969 C124.86997932 103.74635614 110.74534954 82.52584193 92.2578125 63.12109375 C91.64292969 62.46496094 91.02804687 61.80882812 90.39453125 61.1328125 C68.68245008 38.59163038 37.15985102 17.85398968 5.19995117 16.76757812 C-32.62500202 16.3621956 -68.30016057 43.13136369 -92.7421875 70.12109375 Z M-40.7421875 90.12109375 C-41.58007812 90.806875 -42.41796875 91.49265625 -43.28125 92.19921875 C-47.54182736 95.83528151 -50.945679 99.2576007 -53.7421875 104.12109375 C-43.41603487 109.28417006 -24.17812371 104.41587055 -13.7421875 101.12109375 C-9.58487847 99.48866751 -5.51021792 97.68558472 -1.4296875 95.87109375 C13.38107069 89.37017508 23.27893631 89.84463548 38.22265625 95.65234375 C45.01452968 98.23849873 52.01115184 99.25142937 59.2578125 99.12109375 C47.81691111 84.66942883 32.67919014 77.00536928 14.8203125 73.43359375 C-5.89437545 71.61651586 -24.58350782 76.89583592 -40.7421875 90.12109375 Z M5.2578125 110.87109375 C-2.97132235 114.50173511 -10.9220965 117.22322592 -19.7421875 119.12109375 C-20.74636719 119.34539062 -21.75054687 119.5696875 -22.78515625 119.80078125 C-37.40350655 122.56181507 -53.00874113 121.55850315 -67.7421875 120.12109375 C-72.1971875 127.54609375 -72.1971875 127.54609375 -76.7421875 135.12109375 C-73.02668895 137.90771766 -69.55401458 139.65973231 -65.3046875 141.37109375 C-64.64919922 141.65210938 -63.99371094 141.933125 -63.31835938 142.22265625 C-59.30443656 143.84916058 -56.86768413 144.42186857 -52.7421875 143.12109375 C-45.97324168 141.1393958 -39.78552469 140.77444165 -32.7421875 140.80859375 C-31.07071655 140.81052734 -31.07071655 140.81052734 -29.36547852 140.8125 C-21.89427021 140.89911643 -15.28143883 141.81433204 -8 143.4453125 C-2.39917203 144.501524 3.26370492 144.42682237 8.9453125 144.43359375 C10.5068103 144.44132812 10.5068103 144.44132812 12.09985352 144.44921875 C17.1030143 144.4033445 20.61329379 144.02094233 25.2578125 142.12109375 C31.33348673 140.86260424 37.32723334 140.90014465 43.5078125 140.87109375 C45.13009766 140.84015625 45.13009766 140.84015625 46.78515625 140.80859375 C53.08051955 140.77821805 58.15745351 141.51583016 64.11181641 143.51635742 C69.68880136 145.08793782 75.03946435 142.18575756 80.1328125 140.05859375 C81.16535156 139.63610352 81.16535156 139.63610352 82.21875 139.20507812 C83.90071159 138.51594109 85.57958947 137.81928577 87.2578125 137.12109375 C85.80740528 133.21504659 83.98350152 129.71703303 81.8828125 126.12109375 C81.00496094 124.60515625 81.00496094 124.60515625 80.109375 123.05859375 C79.19285156 121.60453125 79.19285156 121.60453125 78.2578125 120.12109375 C77.74476563 119.17492187 77.23171875 118.22875 76.703125 117.25390625 C72.74117771 113.7982781 68.55759816 114.72821894 63.5078125 114.99609375 C49.44128797 115.3598737 37.54018961 113.44009236 24.44140625 108.109375 C16.99055325 105.79641082 11.99044938 107.75156076 5.2578125 110.87109375 Z M-82.7421875 152.12109375 C-87.32133959 165.85855002 -86.15047741 179.01360319 -80.28515625 192.171875 C-68.96069765 213.81735916 -47.57203863 227.12920439 -24.9296875 234.49609375 C-22.87478875 235.06591843 -20.8123775 235.60960337 -18.7421875 236.12109375 C-17.86433594 236.34539062 -16.98648438 236.5696875 -16.08203125 236.80078125 C10.3571931 242.35492047 39.58881046 236.59066952 62.2578125 222.12109375 C77.86330758 211.30521572 91.65490709 197.87626433 95.5078125 178.55859375 C96.89142456 169.63923742 95.90392708 161.9395647 94.2578125 153.12109375 C90.18503262 153.68841646 86.67319135 154.59573234 82.8828125 156.18359375 C82.00882813 156.54582031 81.13484375 156.90804687 80.234375 157.28125 C79.58210937 157.55839844 78.92984375 157.83554688 78.2578125 158.12109375 C78.29261719 158.81074219 78.32742188 159.50039062 78.36328125 160.2109375 C78.5994057 168.40782899 77.62488899 174.53666364 73.0703125 181.43359375 C65.20888257 188.94562679 56.60378023 189.33289997 46.22631836 189.36132812 C44.0951353 189.37098132 41.96493907 189.40199113 39.83398438 189.43359375 C30.64783862 189.50504215 23.62790345 189.07385951 16.2578125 183.12109375 C15.5978125 183.12109375 14.9378125 183.12109375 14.2578125 183.12109375 C13.57006845 181.79850903 12.91069877 180.46122872 12.2578125 179.12109375 C11.7421875 178.13109375 11.2265625 177.14109375 10.6953125 176.12109375 C8.50285168 171.06071702 8.51680677 165.55997333 8.2578125 160.12109375 C6.6078125 160.12109375 4.9578125 160.12109375 3.2578125 160.12109375 C3.23203125 160.81074219 3.20625 161.50039062 3.1796875 162.2109375 C2.67766098 170.52860412 1.31454526 177.63572792 -4.9921875 183.49609375 C-12.31019653 189.69104199 -20.94770599 189.62413316 -30.04101562 189.56713867 C-32.10648725 189.55863779 -34.16917591 189.58744016 -36.234375 189.61914062 C-44.6739637 189.66475248 -53.0303343 189.28428159 -59.63964844 183.44458008 C-65.21033767 177.52682666 -66.90368457 172.18382961 -66.9296875 164.18359375 C-66.8678125 162.18296875 -66.8059375 160.18234375 -66.7421875 158.12109375 C-72.0221875 156.14109375 -77.3021875 154.16109375 -82.7421875 152.12109375 Z M-48.7421875 159.12109375 C-51.08768424 162.63933886 -51.32210153 163.97885069 -50.7421875 168.12109375 C-49.084364 170.69657354 -48.35838119 171.69882053 -45.7421875 173.12109375 C-41.39851884 173.82530677 -37.13182719 173.72698418 -32.7421875 173.62109375 C-31.5665625 173.62367188 -30.3909375 173.62625 -29.1796875 173.62890625 C-21.47654972 173.58639222 -21.47654972 173.58639222 -14.7421875 170.12109375 C-13.2792295 167.19517775 -13.29695641 165.36492028 -13.7421875 162.12109375 C-16.51301707 158.81350662 -18.21418146 157.35936959 -22.51489258 156.6887207 C-25.81263994 156.5562162 -29.06832728 156.58712479 -32.3671875 156.68359375 C-34.06488281 156.69229492 -34.06488281 156.69229492 -35.796875 156.70117188 C-42.59827873 156.60747471 -42.59827873 156.60747471 -48.7421875 159.12109375 Z M26.2578125 160.12109375 C24.5992165 162.93005438 24.5992165 162.93005438 24.2578125 166.12109375 C25.79701425 169.68556096 27.00052909 170.94957148 30.2578125 173.12109375 C34.53435244 173.5903066 38.83332377 173.49144565 43.1328125 173.49609375 C44.31746094 173.52058594 45.50210937 173.54507813 46.72265625 173.5703125 C47.86605469 173.57417969 49.00945312 173.57804687 50.1875 173.58203125 C51.23147949 173.59024902 52.27545898 173.5984668 53.35107422 173.60693359 C56.98466459 172.99960579 58.6419128 171.6656135 61.2578125 169.12109375 C62.41991469 166.7275788 62.41991469 166.7275788 62.2578125 164.12109375 C60.58045253 160.32496329 59.08594181 158.62306932 55.2578125 157.12109375 C51.28932051 156.69827402 47.3090154 156.79678587 43.3203125 156.80859375 C42.23556641 156.79248047 41.15082031 156.77636719 40.03320312 156.75976562 C38.98455078 156.75912109 37.93589844 156.75847656 36.85546875 156.7578125 C35.90164307 156.75483154 34.94781738 156.75185059 33.96508789 156.7487793 C30.73288333 157.19328394 28.87111485 158.19132735 26.2578125 160.12109375 Z M-97.7421875 328.12109375 C-98.03543971 335.24450428 -97.23349518 342.03550435 -96.22924805 349.07910156 C-95.98776031 350.82466843 -95.98776031 350.82466843 -95.74139404 352.60549927 C-95.21042541 356.42934951 -94.67019261 360.25181634 -94.12890625 364.07421875 C-93.849021 366.0655789 -93.56982052 368.05703433 -93.29063827 370.04849315 C-92.41427984 376.29814765 -91.53105655 382.54680624 -90.64379883 388.79492188 C-89.72998567 395.23110736 -88.82916972 401.66902102 -87.93444031 408.10788465 C-87.16368826 413.65064719 -86.38425505 419.19214323 -85.59801322 424.73272967 C-85.12941491 428.03581933 -84.66527054 431.33937181 -84.20770836 434.64402008 C-83.69690383 438.32450567 -83.17193145 442.00270119 -82.64331055 445.68066406 C-82.49513382 446.7706369 -82.34695709 447.86060974 -82.19429016 448.98361206 C-81.22922999 456.02593381 -81.22922999 456.02593381 -77.7421875 462.12109375 C-74.90507768 463.53964866 -72.51416834 463.25691505 -69.34048462 463.26826477 C-68.675979 463.27194146 -68.01147338 463.27561815 -67.32683122 463.27940625 C-65.08978731 463.29046043 -62.85278982 463.29428982 -60.61572266 463.2980957 C-59.01602531 463.30435896 -57.41632942 463.31100563 -55.81663513 463.31800842 C-51.46332311 463.33542891 -47.11002208 463.34597266 -42.75668383 463.35421395 C-40.03862726 463.35936103 -37.32057413 463.36543684 -34.60251999 463.37172508 C-26.10332857 463.39077859 -17.60414587 463.40501037 -9.1049372 463.41333705 C0.71553237 463.42311636 10.53577695 463.44945322 20.3561672 463.48983794 C27.94092262 463.51996202 35.5256134 463.53480232 43.1104275 463.53811806 C47.64341556 463.54047246 52.17616332 463.54948344 56.70908737 463.57457924 C60.97235359 463.59780082 65.23522026 463.60211725 69.49853325 463.59181786 C71.06427397 463.59132096 72.63003397 463.59768644 74.19571495 463.6113739 C76.33167348 463.62900391 78.46618413 463.62203265 80.60214233 463.60884094 C82.3957422 463.61242347 82.3957422 463.61242347 84.2255764 463.61607838 C87.89776795 463.01662691 89.05269116 462.07073199 91.2578125 459.12109375 C91.96716264 456.3344013 92.43938564 453.80562796 92.79296875 450.97265625 C92.91296738 450.12427185 93.032966 449.27588745 93.15660095 448.40179443 C93.56051358 445.51853195 93.94032274 442.63259944 94.3203125 439.74609375 C94.60324314 437.68549283 94.88780075 435.62511476 95.17382812 433.56494141 C95.65102117 430.1198661 96.12581044 426.67453276 96.59414673 423.22824097 C97.94475016 413.29560327 99.36664108 403.37416936 100.80584526 393.45401382 C101.57713109 388.13079281 102.34243405 382.80670845 103.10780048 377.48263359 C103.74565721 373.04694435 104.38588823 368.61162708 105.03152466 364.17706299 C105.64742383 359.94319847 106.25415416 355.70811179 106.85434151 351.47199249 C107.07949266 349.89384493 107.30781809 348.31614659 107.5395031 346.73894501 C107.85901448 344.56063501 108.16716514 342.38099762 108.47265625 340.20068359 C108.73743774 338.35934341 108.73743774 338.35934341 109.00756836 336.48080444 C109.25915144 333.10311756 109.0819988 330.40101045 108.2578125 327.12109375 C104.84706574 323.71034699 101.39003256 324.00456543 96.68721348 323.97802615 C95.57754047 323.97932588 95.57754047 323.97932588 94.44544983 323.98065186 C93.6533508 323.97768073 92.86125177 323.97470961 92.04514974 323.97164845 C89.38824344 323.96296968 86.73138224 323.96145392 84.07446289 323.95996094 C82.17067875 323.95533228 80.26689554 323.95030756 78.3631134 323.94491577 C73.18962617 323.93179671 68.01615192 323.92534809 62.84265065 323.92090511 C59.61166093 323.91797437 56.38067475 323.91386961 53.14968681 323.90940094 C43.04388415 323.89572902 32.93808959 323.88606014 22.83227831 323.88219905 C11.15998278 323.87771505 -0.51219584 323.86015002 -12.18445581 323.83119845 C-21.20365068 323.80960238 -30.2228126 323.79949592 -39.24203306 323.79815793 C-44.63066416 323.79710867 -50.01918531 323.79117478 -55.40778923 323.77333832 C-60.47456565 323.7568929 -65.54114903 323.75468494 -70.60794258 323.76347733 C-72.46835471 323.76424952 -74.32877706 323.75988104 -76.18916321 323.75001907 C-78.72728733 323.73735237 -81.26472225 323.74314733 -83.80284119 323.75360107 C-84.54039247 323.74554467 -85.27794375 323.73748827 -86.03784508 323.72918773 C-90.85634707 323.77566029 -94.27501266 324.65391891 -97.7421875 328.12109375 Z " fill="#ffffff" transform="translate(252.7421875,15.87890625)"/>
</svg>
